<svg width="99" height="93" viewBox="0 0 99 93" fill="none" xmlns="http://www.w3.org/2000/svg">
<path d="M32.1526 79.3824H86.6112C87.4123 79.3824 88.0614 78.7331 88.0614 77.9322C88.0614 77.1314 87.4123 76.4821 86.6112 76.4821H32.1526C31.3515 76.4821 30.7024 77.1314 30.7024 77.9322C30.7024 78.7333 31.3517 79.3824 32.1526 79.3824Z" fill="#E61A4B"/>
<path d="M32.1526 30.7417H36.9245C37.7256 30.7417 38.3747 30.0924 38.3747 29.2915C38.3747 28.4906 37.7256 27.8413 36.9245 27.8413H32.1526C31.3515 27.8413 30.7024 28.4906 30.7024 29.2915C30.7024 30.0926 31.3517 30.7417 32.1526 30.7417Z" fill="#E61A4B"/>
<path d="M32.1526 42.902H36.9245C37.7256 42.902 38.3747 42.2527 38.3747 41.4518C38.3747 40.6509 37.7256 40.0016 36.9245 40.0016H32.1526C31.3515 40.0016 30.7024 40.6509 30.7024 41.4518C30.7024 42.2529 31.3517 42.902 32.1526 42.902Z" fill="#E61A4B"/>
<path d="M32.1526 55.0622H36.9245C37.7256 55.0622 38.3747 54.4129 38.3747 53.6121C38.3747 52.8112 37.7256 52.1619 36.9245 52.1619H32.1526C31.3515 52.1619 30.7024 52.8112 30.7024 53.6121C30.7024 54.4128 31.3517 55.0622 32.1526 55.0622Z" fill="#E61A4B"/>
<path d="M32.1526 67.2224H36.9245C37.7256 67.2224 38.3747 66.5731 38.3747 65.7722C38.3747 64.9713 37.7256 64.322 36.9245 64.322H32.1526C31.3515 64.322 30.7024 64.9713 30.7024 65.7722C30.7024 66.5731 31.3517 67.2224 32.1526 67.2224Z" fill="#E61A4B"/>
<path d="M49.3131 67.2225H79.6554C81.1609 67.2225 82.3856 65.9978 82.3856 64.4921V41.7805H84.1976C85.0215 41.7805 85.7404 41.2519 85.9862 40.4651C86.2321 39.678 85.9421 38.8336 85.2645 38.3641L65.551 24.7046C64.9214 24.2682 64.0475 24.2682 63.4175 24.7046L43.704 38.3641C43.0264 38.8338 42.7364 39.6782 42.9827 40.4653C43.2285 41.2519 43.9472 41.7804 44.7711 41.7804H46.5831V64.4921C46.5829 65.9978 47.8076 67.2225 49.3131 67.2225ZM68.0223 64.3221H60.9462V52.062H68.0223V64.3221ZM79.4854 64.3221H79.4852H70.9227V51.8273C70.9227 50.3576 69.727 49.1618 68.2573 49.1618H60.7114C59.2415 49.1618 58.046 50.3576 58.046 51.8273V64.3223H49.4835V41.7805H79.4854V64.3221ZM64.4843 27.494L80.9167 38.8802H48.0518L64.4843 27.494Z" fill="#E61A4B"/>
<path d="M97.5498 23.6581C98.3509 23.6581 99 23.0088 99 22.2079V16.9129C99 14.0236 96.6536 11.6729 93.7696 11.6729H22.9496V11.6083C22.9496 5.26712 17.8022 0.10791 11.4749 0.10791C5.1476 0.10791 0.000193359 5.26712 0.000193359 11.6083V56.9748C0.000193359 57.7757 0.649299 58.425 1.45039 58.425C2.25147 58.425 2.90058 57.7757 2.90058 56.9748V11.6083C2.90058 6.86639 6.74707 3.0083 11.4749 3.0083C16.2027 3.0083 20.0492 6.8662 20.0492 11.6083V13.1231V73.7497C19.8498 73.5259 19.6408 73.3086 19.4223 73.0982C17.4247 71.1751 14.8693 70.0664 12.1377 69.9128C12.0815 69.9095 12.0244 69.909 11.968 69.9067C11.8249 69.9007 11.6818 69.8956 11.5379 69.8949C11.5168 69.8947 11.4962 69.8931 11.4749 69.8931C11.4138 69.8931 11.3537 69.8972 11.2926 69.8981C11.2048 69.8995 11.1174 69.8983 11.0292 69.9016C10.9938 69.903 10.9592 69.9065 10.9238 69.9082C10.8461 69.9119 10.7689 69.9175 10.6914 69.9227C10.5698 69.931 10.4485 69.9405 10.3279 69.9527C10.2471 69.9608 10.1666 69.9699 10.0862 69.9797C9.97384 69.9935 9.86228 70.0089 9.7509 70.026C9.66292 70.0393 9.57514 70.053 9.48793 70.0683C9.39183 70.0853 9.29631 70.1045 9.20099 70.1238C9.10044 70.1441 9.00009 70.1642 8.90051 70.1872C8.83399 70.2027 8.76844 70.2203 8.70232 70.2367C6.42513 70.8054 4.41342 72.0535 2.90039 73.7586V62.8562C2.90039 62.0553 2.25128 61.406 1.45019 61.406C0.649106 61.406 0 62.0553 0 62.8562V81.3926C0 81.4105 0.00193359 81.4279 0.00270703 81.4457C0.0145019 84.4239 1.1443 87.2241 3.21749 89.3771C5.39994 91.6439 8.33242 92.8922 11.4747 92.8922H93.7696C96.6536 92.8922 99 90.5415 99 87.6522V28.2484C99 27.4475 98.3509 26.7982 97.5498 26.7982C96.7487 26.7982 96.0996 27.4475 96.0996 28.2484V87.652C96.0996 88.9421 95.0545 89.9916 93.7696 89.9916H11.4749C9.12809 89.9916 6.93772 89.0589 5.30693 87.3652C3.69586 85.6919 2.84702 83.4942 2.90638 81.1669C2.90773 81.1178 2.90793 81.0685 2.91005 81.0194C2.91353 80.9351 2.91972 80.8513 2.92571 80.7676C2.92997 80.7083 2.93384 80.6485 2.93925 80.5895C2.9466 80.5095 2.95627 80.43 2.96574 80.3506C2.97289 80.2908 2.98005 80.2311 2.98856 80.1717C3.00016 80.0899 3.01369 80.0085 3.02762 79.9273C3.0369 79.8735 3.04618 79.8196 3.05643 79.766C3.07325 79.6782 3.09181 79.591 3.11134 79.5042C3.1212 79.4605 3.13106 79.4168 3.1415 79.3733C3.1649 79.2766 3.18984 79.1807 3.21653 79.0852C3.22503 79.0549 3.23354 79.0247 3.24224 78.9943C3.27357 78.8868 3.30663 78.7799 3.34202 78.6741C3.34704 78.6592 3.35207 78.6444 3.3571 78.6295C4.17191 76.2386 6.01521 74.3116 8.34905 73.3875C8.36026 73.383 8.37148 73.3786 8.38289 73.3742C8.48672 73.3335 8.59191 73.2955 8.69767 73.2589C8.72745 73.2487 8.75723 73.2384 8.7872 73.2284C8.87808 73.198 8.96973 73.1696 9.06177 73.1423C9.10818 73.1286 9.15478 73.1152 9.20157 73.1023C9.28046 73.0804 9.35993 73.0596 9.43979 73.0398C9.50108 73.0248 9.56276 73.0106 9.62464 72.9969C9.69328 72.9816 9.76212 72.9669 9.83134 72.9532C9.90482 72.9389 9.97868 72.9259 10.0527 72.9134C10.1136 72.9031 10.1747 72.8929 10.236 72.8838C10.3176 72.872 10.3996 72.8619 10.4818 72.8525C10.5388 72.8459 10.5959 72.8387 10.6533 72.8333C10.7372 72.8252 10.8217 72.8196 10.9062 72.814C10.965 72.8101 11.0234 72.8057 11.0826 72.803C11.1601 72.7995 11.238 72.7985 11.3161 72.797C11.3854 72.7958 11.4548 72.7939 11.5238 72.7941C11.6089 72.7947 11.6934 72.7976 11.7777 72.8005C11.8361 72.8024 11.8945 72.8037 11.9527 72.8068C12.0575 72.8126 12.1617 72.8211 12.2655 72.8308C12.3005 72.8339 12.3359 72.8364 12.3707 72.8399C12.5063 72.854 12.641 72.871 12.7746 72.8915C12.7764 72.8917 12.7779 72.8919 12.7797 72.8923C16.6041 73.4805 19.6041 76.6121 20.0036 80.5056C20.0332 80.7984 20.0482 81.0942 20.0482 81.3929C20.0482 81.404 20.0504 81.4144 20.0507 81.4252C20.0519 81.4765 20.0558 81.5269 20.0622 81.5768C20.0651 81.5993 20.0685 81.6215 20.0724 81.6435C20.0811 81.693 20.0921 81.7416 20.1057 81.7891C20.1095 81.8025 20.1124 81.8162 20.1167 81.8296C20.1339 81.8843 20.1552 81.9371 20.1786 81.9887C20.1869 82.0072 20.196 82.0254 20.205 82.0436C20.2273 82.0877 20.2515 82.1306 20.2779 82.172C20.2863 82.1849 20.294 82.1981 20.3025 82.2109C20.3334 82.2561 20.3677 82.2988 20.4034 82.3402C20.4176 82.3565 20.4319 82.3721 20.4467 82.3878C20.4816 82.4245 20.5179 82.4595 20.5562 82.4924C20.5684 82.5028 20.5806 82.5133 20.5931 82.5233C20.6355 82.5574 20.6801 82.5885 20.7263 82.6177C20.742 82.6275 20.7575 82.637 20.7735 82.6463C20.8271 82.6774 20.8822 82.706 20.9398 82.7302C20.9414 82.7308 20.9427 82.7318 20.9443 82.7325C20.9497 82.7349 20.9553 82.7358 20.9607 82.738C21.0139 82.7592 21.0688 82.7768 21.1251 82.7919C21.1407 82.796 21.1562 82.8002 21.1718 82.8039C21.232 82.8178 21.2931 82.829 21.3559 82.8352C21.3656 82.8362 21.3751 82.836 21.3847 82.8366C21.4226 82.8397 21.4607 82.8424 21.4996 82.8424C21.5153 82.8424 21.5303 82.8404 21.5458 82.84C21.564 82.8395 21.582 82.8385 21.6001 82.8373C21.6591 82.8333 21.7175 82.8265 21.7744 82.8157C21.7776 82.8151 21.7811 82.8149 21.7844 82.8141C21.848 82.8014 21.9097 82.7836 21.97 82.7629C21.9818 82.7588 21.9932 82.7546 22.0048 82.7501C22.0617 82.7291 22.1172 82.7051 22.1703 82.6772C22.1742 82.6753 22.1783 82.6736 22.1821 82.6716C22.2386 82.6415 22.2922 82.6071 22.3438 82.5699C22.3554 82.5616 22.3668 82.5529 22.3782 82.5442C22.4295 82.505 22.4791 82.4638 22.5246 82.4181C22.5248 82.4179 22.525 82.4178 22.5252 82.4176C22.5286 82.4141 22.5315 82.4102 22.535 82.4065C22.5646 82.3764 22.5932 82.3452 22.6201 82.3126C22.6288 82.3019 22.6362 82.2907 22.6445 82.2799C22.6652 82.2532 22.6858 82.2267 22.7046 82.1987C22.7112 82.1888 22.7166 82.1784 22.723 82.1685C22.7421 82.1383 22.7611 82.1082 22.7779 82.0767C22.7816 82.0697 22.7847 82.0624 22.7881 82.0552C22.8063 82.0202 22.8235 81.9846 22.8388 81.9481C22.8407 81.9434 22.8421 81.9386 22.844 81.9338C22.8597 81.8947 22.8744 81.8553 22.8867 81.8147C22.8883 81.8094 22.8893 81.8042 22.8908 81.799C22.9024 81.7592 22.913 81.7188 22.9214 81.6776C22.9239 81.6654 22.9248 81.6528 22.927 81.6404C22.933 81.6062 22.939 81.572 22.9424 81.5368C22.9473 81.4889 22.9498 81.4405 22.9498 81.392V14.5731H93.7696C95.0545 14.5731 96.0996 15.6227 96.0996 16.9127V22.2077C96.0996 23.009 96.7487 23.6581 97.5498 23.6581Z" fill="#E61A4B"/>
</svg>
