<svg width="92" height="92" viewBox="0 0 92 92" fill="none" xmlns="http://www.w3.org/2000/svg">
<path d="M86.6094 0H22.6406C19.6682 0 17.25 2.41823 17.25 5.39062V11.5C17.25 12.4922 18.0545 13.2969 19.0469 13.2969C20.0393 13.2969 20.8438 12.4922 20.8438 11.5V5.39062C20.8438 4.39983 21.6498 3.59375 22.6406 3.59375H86.6094C87.6002 3.59375 88.4062 4.39983 88.4062 5.39062V86.6094C88.4062 87.6002 87.6002 88.4062 86.6094 88.4062H22.6406C21.6498 88.4062 20.8438 87.6002 20.8438 86.6094V80.7992C20.8438 79.8069 20.0393 79.0023 19.0469 79.0023C18.0545 79.0023 17.25 79.8069 17.25 80.7992V86.6094C17.25 89.5818 19.6682 92 22.6406 92H86.6094C89.5818 92 92 89.5818 92 86.6094V5.39062C92 2.41823 89.5818 0 86.6094 0Z" fill="#E61A4B"/>
<path d="M77.9651 69.3594H34.8401C33.8477 69.3594 33.0432 70.164 33.0432 71.1562C33.0432 72.1485 33.8477 72.9531 34.8401 72.9531H77.9651C78.9575 72.9531 79.762 72.1485 79.762 71.1562C79.762 70.164 78.9575 69.3594 77.9651 69.3594Z" fill="#E61A4B"/>
<path d="M70.6171 78.7031H34.8401C33.8477 78.7031 33.0432 79.5078 33.0432 80.5C33.0432 81.4922 33.8477 82.2969 34.8401 82.2969H70.6171C71.6095 82.2969 72.414 81.4922 72.414 80.5C72.414 79.5078 71.6095 78.7031 70.6171 78.7031Z" fill="#E61A4B"/>
<path d="M47.4334 15.7705C36.7405 15.7705 28.0411 24.4699 28.0411 35.1629C28.0408 40.7131 30.3853 45.7257 34.1352 49.2639C34.199 49.3331 34.2677 49.3981 34.3428 49.4571C37.7949 52.6212 42.3922 54.555 47.4332 54.555C52.4742 54.555 57.0713 52.621 60.5236 49.4571C60.5987 49.3981 60.6674 49.3329 60.7311 49.2639C64.481 45.7257 66.8256 40.7131 66.8256 35.1629C66.8256 24.4699 58.1262 15.7705 47.4334 15.7705ZM47.4332 50.9612C43.7419 50.9612 40.3427 49.6885 37.6503 47.5592C39.5579 43.9507 43.2747 41.6804 47.4332 41.6804C51.5917 41.6804 55.3085 43.9507 57.2161 47.5592C54.5237 49.6885 51.1245 50.9612 47.4332 50.9612ZM43.651 34.3046V32.9096C43.651 30.8242 45.3476 29.1274 47.433 29.1274C49.5185 29.1274 51.2151 30.824 51.2151 32.9096V34.3046C51.2151 36.3898 49.5185 38.0866 47.433 38.0866C45.3476 38.0866 43.651 36.39 43.651 34.3046ZM59.8444 44.9273C58.1997 42.3041 55.7932 40.3034 52.9766 39.1622C54.116 37.8636 54.809 36.164 54.809 34.3047V32.9098C54.809 28.8426 51.5002 25.5338 47.4332 25.5338C43.3662 25.5338 40.0574 28.8426 40.0574 32.9098V34.3047C40.0574 36.164 40.7504 37.8636 41.8898 39.1622C39.0732 40.3036 36.6667 42.3041 35.022 44.9273C32.9015 42.2379 31.6347 38.8456 31.6347 35.1629C31.6345 26.4515 38.7218 19.3643 47.4332 19.3643C56.1444 19.3643 63.2317 26.4515 63.2317 35.1629C63.2317 38.8456 61.9649 42.2379 59.8444 44.9273Z" fill="#E61A4B"/>
<path d="M47.4332 7.1875C32.0076 7.1875 19.4578 19.7372 19.4578 35.1629C19.4578 44.0813 23.6528 52.0386 30.1731 57.1647L9.31752 78.0201C8.01029 79.3274 5.88315 79.3274 4.57574 78.0201C3.94252 77.3869 3.59375 76.5449 3.59375 75.6493C3.59375 74.7538 3.94252 73.9118 4.57592 73.2785L15.2422 62.6123C15.9439 61.9106 15.9439 60.7728 15.2422 60.071C14.5405 59.3695 13.4027 59.3695 12.701 60.071L2.03496 70.7372C0.722523 72.0493 0 73.7939 0 75.6493C0 77.5048 0.722523 79.2494 2.0346 80.5615C3.38891 81.9156 5.16781 82.5928 6.94672 82.5928C8.72562 82.5928 10.5045 81.9156 11.8588 80.5615L33.189 59.2313C37.3639 61.7115 42.2347 63.1384 47.4332 63.1384C62.859 63.1384 75.4086 50.5887 75.4086 35.163C75.4086 19.7374 62.8588 7.1875 47.4332 7.1875ZM47.4332 59.5445C33.9892 59.5445 23.0514 48.6071 23.0514 35.1629C23.0514 21.7188 33.989 10.7812 47.4332 10.7812C60.8774 10.7812 71.8148 21.7188 71.8148 35.1629C71.8148 48.6069 60.8772 59.5445 47.4332 59.5445Z" fill="#E61A4B"/>
</svg>
